# xmcd CD database file
#
# Track frame offsets:
#	150
#	11423
#	28970
#	45397
#	59232
#	73247
#	85209
#	109651
#	124381
#	138914
#	152744
#	165450
#	182803
#	204838
#	221696
#	235302
#	253127
#	267141
#	287566
#
# Disc length: 4005 seconds
#
# Revision: 0
# Processed by: cddbd v1.4PL0 Copyright (c) Steve Scherf et al.
# Submitted via: CDex 1.40Release
#
DISCID=190fa313
DTITLE=Diverse artiesten - DURANGO NIEUW Repertoire vol 1 
DYEAR=1900
DGENRE=Country
TTITLE0=It Only Hurts Me When I Cry-Dwight Yoakam
TTITLE1=Little Sister-Dwight Yoakam
TTITLE2=Do It Again-Jeff Carson
TTITLE3=Guitars,Cadillacs-Dwight Yoakam
TTITLE4=Billy B Bad-George Jones
TTITLE5=Adieu Cherie-Major Dundee
TTITLE6=Anyway Th Wind Blows-Brother Phelps
TTITLE7=I Hear You Knockin'-Dwight Yoakam
TTITLE8=Country Down To My Soul-Leroy Parnell
TTITLE9=Good Brown Gravy-Joe Diffie
TTITLE10=Seven Nights To Rock-BR 5-49
TTITLE11=What A Crying Shame-The Mavericks
TTITLE12=Cotton Country Queen(BeepBeep)-Ron Wallace
TTITLE13=Driving My Llife Away-Rhett Akins
TTITLE14=I Wanna Talk About Me-Toby Keith
TTITLE15=Who's Your Daddy-Toby Keith
TTITLE16=Blues For Dixie-Lyle Lovett
TTITLE17=Private Conversation (The Road to Ensenada)-Lle Lovett
TTITLE18=Cowboy Man-Lyle Lovett
EXTD=ID3G: 2
EXTT0=
EXTT1=
EXTT2=
EXTT3=
EXTT4=
EXTT5=
EXTT6=
EXTT7=
EXTT8=
EXTT9=
EXTT10=
EXTT11=
EXTT12=
EXTT13=
EXTT14=
EXTT15=
EXTT16=
EXTT17=
EXTT18=
PLAYORDER=
